<?xml version="1.0" standalone="no"?><!DOCTYPE svg PUBLIC "-//W3C//DTD SVG 1.1//EN" "http://www.w3.org/Graphics/SVG/1.1/DTD/svg11.dtd"><svg t="1509912845208" class="icon" style="" viewBox="0 0 1024 1024" version="1.1" xmlns="http://www.w3.org/2000/svg" p-id="1398" xmlns:xlink="http://www.w3.org/1999/xlink" width="200" height="200"><defs><style type="text/css"></style></defs><path d="M853.868693 332.636936 712.364889 332.636936c0.576121-0.537236 10.191106-5.375427 10.751878-5.922896 48.552809-47.483454 48.552809-124.757398 0-172.241876-23.520693-23.006993-54.785767-35.679617-88.042195-35.679617-33.255405 0-64.520479 12.671601-88.034009 35.679617-11.82942 11.564383-22.670326 26.955932-31.402197 44.282552-8.731872-17.327644-19.573801-32.718169-31.402197-44.282552-23.514553-23.006993-54.779627-35.679617-88.044242-35.679617-33.248242 0-64.513316 12.671601-88.034009 35.679617-48.551786 47.484478-48.551786 124.758422 0 172.250062 0.553609 0.546446-2.833535 5.376451-2.263553 5.913687L180.021561 332.635913c-43.494607 0-82.175581 30.840402-82.175581 74.424037l0 39.098483c0 43.590797 35.390022 79.053474 78.885652 79.053474l0.216941 0c0 0.138146 3.072989 4.51892 3.072989 4.646833l0 328.70744c0 30.92943 27.6395 49.248657 68.37425 49.248657l534.933315 0c40.736796 0 70.540589-18.319228 70.540589-49.248657L853.869716 529.859763c0-0.1361 0.908696-4.508687 0.908696-4.646833l2.382257 0c43.496653 0 78.886675-35.462676 78.886675-79.053474L936.047344 407.060973C936.270425 364.118951 898.553405 336.046592 853.868693 332.636936L853.868693 332.636936zM344.311325 189.830463c13.866822-13.554714 32.284287-21.017686 51.881624-21.017686 19.605523 0 38.031175 7.462972 51.889811 21.017686 32.277124 31.57002 51.27992 102.671381 26.234501 127.188774-9.493212 9.28548-24.788569 11.234879-35.951817 11.234879l-0.008186 0c-32.100092-0.008186-72.538083-15.873526-94.04491-36.906561-13.859659-13.554714-22.783913-31.104415-22.783913-50.276057C321.519226 221.890646 330.451666 203.393363 344.311325 189.830463L344.311325 189.830463zM492.292658 858.567203c0 0-170.020278 0-239.876276 0-16.202007 0-23.087834-8.458649-23.087834-27.689642 0-14.366196 0-301.017798 0-301.017798 2.792603-1.780553 262.96411 0 262.96411 0L492.292658 858.567203 492.292658 858.567203zM492.292658 480.554824 180.021561 480.554824c-13.858636 0-32.869618-18.97926-32.869618-32.870642l0-32.871665c0-13.890358 15.721053-32.934087 29.579689-32.934087l315.561026 0.063445L492.292658 480.554824zM583.184761 189.830463c13.866822-13.554714 32.293497-21.017686 51.889811-21.017686 19.605523 0 38.022988 7.462972 51.889811 21.017686 13.860682 13.5629 21.490453 31.587416 21.490453 50.766221 0 19.171642-7.629771 37.196157-21.490453 50.750871-21.515013 21.041222-61.951981 36.906561-94.053096 36.906561-11.155061 0-26.449395-1.949398-35.961026-11.234879C531.904841 292.511054 550.915823 221.400482 583.184761 189.830463L583.184761 189.830463zM788.128433 858.567203 541.59862 858.567203 541.59862 529.859763c0 0 260.171508-1.772366 262.966157 0l0 312.27212C804.564777 842.131883 796.907377 858.567203 788.128433 858.567203zM886.739335 447.684182c0 13.890358-19.009959 32.870642-32.870642 32.870642L541.59862 480.554824l0-98.611925 315.561026-0.063445c13.859659 0 29.579689 19.043728 29.579689 32.934087L886.739335 447.684182 886.739335 447.684182z" p-id="1399"></path></svg>